Patient4_TMGait_0pt4_02_right_36_EMG.mot
version=1
nRows=20
nColumns=33
inDegrees=no
endheader
time	1LAddLong	2LGlutMax	3LGlutMed	4LIliopsoas	5LSemiMemb	6LBicFemLong	7LRecFem	8LVastMed	9LVastLat	10LGasMed	11LTibAnt	12lTibPost	13LPeroneusLong	14LSol	15LExtDigLong	16LFlexDigLong	17RAddLong	18RGlutMax	19RGlutMed	20RIliopsoas	21RSemiMemb	22RBicFemLong	23RRecFem	24RVastMed	25RVastLat	26RGasMed	27RTibAnt	28RTibPost	29RPeroneusLong	30RSol	31RExtDigLong	32RFlexDigLong
47.972	0.058441	-0.13214	-0.19287	-0.016479	-0.004578	-0.036926	0.0383	0.001678	0.14313	0.009766	-0.06485	0.001526	-0.000153	0.054474	0.1471	-0.019989	-0.094147	-0.25116	0.31982	-0.075684	0.031586	0.28503	0.44998	0.13458	0.086975	-0.062256	0.030823	-0.21316	-0.2948	0.91538	-0.006561	-0.006409
47.973	-0.020752	-0.15701	-0.17578	-0.013428	-0.00061	-0.027618	0.074921	0.000153	0.14313	0.034485	0.017853	0.003204	-0.098877	-0.00473	0.58563	-0.014954	-0.10178	-0.31921	0.16693	-0.03418	0.2652	0.18188	0.3569	0.17151	-0.002289	-0.075378	0.021515	-0.17914	-0.41443	0.23636	-0.001526	-0.004272
47.974	-0.015717	-0.15595	-0.21622	-0.013275	-0.00412	-0.016022	0.10117	0.005035	0.13565	0.049591	0.11185	0.002441	-0.13138	-0.02533	0.3067	-0.013733	-0.083466	-0.37323	-0.029449	-0.081177	0.26703	0.021973	0.39581	0.14343	0.055084	-0.16174	-0.009918	0.18494	-0.2211	-0.12802	-0.001984	-0.012817
47.975	-0.010071	-0.13626	-0.17197	-0.0177	-0.002289	-0.015106	0.090027	0.005188	0.12466	0.018158	0.038605	0.003052	-0.079651	0.037079	0.056763	-0.006561	-0.031891	-0.4602	0.12863	-0.11871	0.20477	-0.066071	0.59036	0.16296	0.14099	-0.090332	-0.015869	0.17364	-0.20416	-0.26062	-0.001373	-0.010071
47.976	-0.010834	-0.097809	-0.17136	0.001526	0	-0.025024	0.0914	0.003967	0.11871	0.001373	-0.003052	0.00412	-0.027161	0.084686	-0.087433	0.004425	-0.026703	-0.55374	-0.47989	-0.078125	0.007629	-0.005493	0.61966	0.072784	0.15045	-0.028076	-0.001831	-0.027161	-0.17685	-0.25452	-0.002594	-0.003815
47.977	-0.00885	-0.066681	-0.16815	0.013123	-0.002899	-0.031586	0.07431	0.011139	0.11169	-0.013275	-0.055084	0.000153	-0.000916	0.12772	0.007782	-0.002441	-0.011597	-0.50079	-0.20767	-0.046082	-0.25269	-0.10468	0.56152	0.029449	0.14435	0.064087	-0.016632	0.12482	-0.2301	-0.39017	-0.001984	0.001373
47.978	-0.010529	-0.086365	-0.17197	0.005341	-0.00061	-0.007629	0.12482	0.001831	0.1033	0.004425	-0.031738	-0.002594	-0.014954	0.1207	0.011444	-0.003052	0.003204	-0.43747	-0.20004	0.087128	-0.058441	-0.35339	0.44205	0.071411	0.14801	0.14267	0.021362	-0.10513	-0.041351	-0.14191	0.001068	-0.005798
47.979	-0.005188	-0.094452	-0.16602	0.026245	-0.003815	-0.02594	0.14053	0.010071	0.11063	0.026398	-0.020294	-0.000916	-0.012207	0.044098	0.22797	-0.01236	0.002899	-0.37811	-0.39932	0.074005	-0.15671	-0.23117	0.22186	0.041046	0.1088	0.062103	0.056	0.18478	-0.063934	-0.052643	-0.002289	-0.003967
47.98	-0.008545	-0.086212	-0.19073	0.027008	0.00061	-0.027618	0.075989	0.001831	0.095978	0.032196	0.10529	0.000305	-0.020905	-0.021057	0.28931	-0.00351	-0.027161	-0.4007	-0.2095	-0.02182	-0.34302	0.12436	0.17929	0.042877	-0.16159	0.033264	0.062561	0.27435	-0.11353	0.4776	-0.002747	-0.009308
47.981	-0.008545	-0.084381	-0.15854	0.009766	0.002136	-0.003052	-0.007935	0.001678	0.084229	0.010834	0.30914	-0.007629	-0.022888	0.004425	0.32181	-0.008698	-0.042572	-0.39002	-0.37582	-0.12116	-0.053711	0.15152	0.34149	0.039673	-0.49927	0.044861	0.029144	0.094604	-0.27359	0.41168	-0.003815	0.003357
47.982	-0.003357	-0.023499	-0.16602	-0.004272	-0.005798	-0.018311	0.003204	0.009766	0.089569	-0.042114	0.103	0.000305	0.070801	0.1149	-0.22385	0	-0.024872	-0.41641	-0.71411	-0.16693	0.3064	0.051422	0.30502	0.14816	-0.25925	0.057678	0.002136	0.021973	-0.38162	0.22553	-0.001831	0.004883
47.983	-0.007935	-0.016937	-0.22339	0.007782	-0.005493	0.011597	0.048065	0.011902	0.082855	-0.022888	-0.014954	0.001984	0.022278	0.12421	-0.4277	-0.002441	-0.015411	-0.42236	-0.51727	-0.18082	0.112	-0.0737	0.23819	0.13107	-0.11505	0.062561	0.012207	-0.007629	-0.49759	0.18066	-0.003662	0.011597
47.984	0	-0.046692	-0.25421	0.009613	-0.00061	-0.002289	0.086212	0.016327	0.070038	0.023499	0.18341	0.008545	-0.13367	0.10361	-0.35111	-0.011902	-0.008087	-0.54459	-0.33035	-0.095215	0.00061	-0.10849	0.21149	0.090027	-0.041351	-0.004883	0.029602	-0.030212	-0.12344	0.019836	-0.004578	-0.000916
47.985	0.000153	-0.066071	-0.26459	0.02182	-0.008087	-0.001526	0.16281	0.008392	0.056305	0.020752	0.22903	0.007477	-0.050507	0.063782	-0.021973	-0.00885	0.000305	-0.68268	-0.003662	0.071564	0.022278	-0.06012	0.15518	0.04837	-0.046997	-0.015259	0.029755	-0.028381	0.46722	-0.087585	-0.002899	-0.011749
47.986	0.010529	-0.059052	-0.20355	0.010529	-0.004272	0.015411	0.19531	0.016022	0.050659	0.009003	-0.29862	0.000305	0.031586	-0.003967	0.32364	-0.002441	0.010223	-0.75211	-0.2565	0.1506	0.065613	0.052795	0.14542	0.010223	-0.030975	-0.018311	-0.030823	-0.03952	0.020599	-0.28091	-0.001831	-0.004272
47.987	0.002594	-0.10712	-0.15396	0.006714	-0.003357	0.019989	0.20554	0.014343	0.043793	0.011597	-0.31906	-0.002136	-0.040283	-0.020142	-0.74417	-0.014648	0.000458	-0.73639	-0.13596	0.10574	0.11749	0.090942	0.085754	0.041199	-0.003204	-0.051727	-0.084839	-0.068359	-0.3331	-0.043335	-0.002136	-0.007477
47.988	-0.002594	-0.11398	-0.20401	-0.005646	-0.005035	0.009766	0.2121	0.02182	0.044861	0.011597	-0.33936	0.004883	0.014343	-0.028687	-0.6337	-0.018616	0.009003	-0.72815	-0.7872	0.047607	0.12253	0.037384	0.033112	0.038605	0.001678	-0.046844	-0.066223	0.050201	-0.042267	-0.20935	0.001984	-0.007172
47.989	0.000458	-0.11627	-0.24536	0.023041	-0.008087	0.025177	0.22598	0.018005	0.034332	-0.007629	-0.26489	0.008545	0.052795	-0.061493	-0.029602	-0.009766	0.046082	-0.69	-0.92728	-0.026703	0.060883	0.030518	0.049591	0.014038	-0.028839	-0.011139	-0.023651	0.02121	1.4421	0.24597	-0.00061	-0.011292
47.99	-0.05249	-0.12711	-0.24124	0.03479	-0.001831	0.01236	0.22903	0.010223	0.037994	0.023956	-0.15503	0.007629	-0.00824	-0.079803	0.080872	0.004272	0.089569	-0.6723	-0.38879	-0.079346	0.078125	-0.048676	0.008392	-0.000916	-0.045471	-0.031891	0.036469	-0.0177	0.031433	0.85113	-0.003052	-0.013733
47.991	-0.075989	-0.14236	-0.25024	0.026703	-0.001831	0.002289	0.22934	0.012207	0.05127	0.034027	-0.010681	0.007172	-0.091858	-0.00824	0.063934	-0.011597	0.060272	-0.71518	0.45959	-0.14847	0.033875	-0.08194	0.009308	-0.075684	-0.047455	-0.019836	0.066833	-0.058899	-0.71793	0.65262	-0.001373	-0.027161
